# xmcd
#
# Track frame offsets: 
#        150
#        17593
#        32500
#        48380
#        68611
#        89108
#        104293
#        116659
#        136153
#        151980
#        170716
#        185549
#        200612
#        217178
#        233780
#        248602
#        262139
#        278511
#        294261
#        308805
#
# Disc length: 4404 seconds
#
# Revision: 0
# Processed by: cddbd v1.5.2PL0 Copyright (c) Steve Scherf et al.
# Submitted via: ExactAudioCopy v1.1
#
DISCID=1f113214
DTITLE=Various Artist - Het Beste Uit De MNM 1000 (2018) - CD 5
DYEAR=2018
DGENRE=Top 40
TTITLE0=Stromae - Papaoutai
TTITLE1=Lil Kleine Feat. Boef - Krantenwijk
TTITLE2=Swedish House Mafia - Save The World
TTITLE3=P!nk - What About Us
TTITLE4=London Grammar - Strong
TTITLE5=Sam Smith - Too Good At Goodbyes
TTITLE6=Niels and Wiels - Skwon meiske
TTITLE7=Underworld - Born Slippy (Nuxx)
TTITLE8=Milk Inc. - In My Eyes
TTITLE9=Netsky - Come Alive
TTITLE10=Rae Sremmurd Feat. Gucci Mane - Black Beatles
TTITLE11=AJR - Weak
TTITLE12=De Jeugd Van Tegenwoordig - Sterrenstof
TTITLE13=Tourist LeMC - En route
TTITLE14=Iggy Azalea Feat. Charli XCX - Fancy
TTITLE15=Jonas Blue Feat. William Singe - Mama
TTITLE16=Kygo and Selena Gomez - It Ain't Me
TTITLE17=Ariana Grande - Dangerous Woman
TTITLE18=American Authors - Best Day Of My Life
TTITLE19=Oasis - Don't Look Back In Anger
EXTD=
EXTT0=
EXTT1=
EXTT2=
EXTT3=
EXTT4=
EXTT5=
EXTT6=
EXTT7=
EXTT8=
EXTT9=
EXTT10=
EXTT11=
EXTT12=
EXTT13=
EXTT14=
EXTT15=
EXTT16=
EXTT17=
EXTT18=
EXTT19=
PLAYORDER=
